<svg width="500" height="300" viewBox="0 0 500 300" fill="none" xmlns="http://www.w3.org/2000/svg">
<rect width="500" height="300" rx="20" fill="#222222"/>
<path d="M122.14 127.148H132.635V163.18H151.836L150.812 171.5H122.14V127.148ZM173.699 119.724C175.448 119.724 176.877 120.279 177.987 121.388C179.096 122.455 179.651 123.799 179.651 125.42C179.651 127.084 179.096 128.449 177.987 129.516C176.877 130.583 175.448 131.116 173.699 131.116C171.949 131.116 170.499 130.583 169.347 129.516C168.237 128.407 167.683 127.041 167.683 125.42C167.683 123.799 168.237 122.455 169.347 121.388C170.499 120.279 171.949 119.724 173.699 119.724ZM179.779 164.588H188.483V171.5H160.067V164.588H169.667V144.428H160.387V137.516H179.779V164.588ZM207.53 140.972C208.596 139.521 209.876 138.391 211.37 137.58C212.906 136.769 214.527 136.364 216.234 136.364C220.458 136.364 223.594 137.943 225.642 141.1C227.732 144.257 228.778 148.695 228.778 154.412C228.778 157.953 228.244 161.089 227.178 163.82C226.111 166.551 224.554 168.705 222.506 170.284C220.458 171.82 218.004 172.588 215.146 172.588C213.439 172.588 211.86 172.225 210.41 171.5C208.959 170.775 207.743 169.751 206.762 168.428L206.378 171.5H197.418V124.012L207.53 122.924V140.972ZM212.522 165.228C216.404 165.228 218.346 161.665 218.346 154.54C218.346 150.572 217.898 147.799 217.002 146.22C216.106 144.641 214.783 143.852 213.034 143.852C210.943 143.852 209.108 145.175 207.53 147.82V162.156C208.852 164.204 210.516 165.228 212.522 165.228ZM261.713 136.492C263.761 136.492 265.638 136.833 267.345 137.516L265.489 151.724H259.089V145.452C257.211 145.793 255.547 146.817 254.097 148.524C252.646 150.231 251.515 152.385 250.705 154.988V164.716H257.425V171.5H236.113V164.716H240.593V144.236H236.113V137.516H248.337L250.128 145.132C251.366 142.231 252.923 140.076 254.801 138.668C256.678 137.217 258.982 136.492 261.713 136.492ZM302.776 161.708C302.776 162.945 302.946 163.863 303.288 164.46C303.629 165.057 304.205 165.505 305.016 165.804L302.904 172.46C300.856 172.247 299.149 171.799 297.784 171.116C296.418 170.391 295.352 169.345 294.584 167.98C293.304 169.473 291.682 170.625 289.72 171.436C287.757 172.204 285.666 172.588 283.448 172.588C279.949 172.588 277.154 171.607 275.064 169.644C272.973 167.639 271.928 165.057 271.928 161.9C271.928 158.231 273.378 155.393 276.28 153.388C279.181 151.34 283.256 150.316 288.503 150.316H293.048V149.1C293.048 145.601 290.808 143.852 286.328 143.852C285.176 143.852 283.725 144.023 281.976 144.364C280.269 144.663 278.605 145.089 276.984 145.644L274.68 138.924C276.856 138.113 279.117 137.495 281.464 137.068C283.853 136.599 286.008 136.364 287.928 136.364C297.826 136.364 302.776 140.375 302.776 148.396V161.708ZM286.904 165.356C288.056 165.356 289.208 165.036 290.36 164.396C291.554 163.713 292.45 162.796 293.048 161.644V156.076H290.552C285.09 156.076 282.36 157.783 282.36 161.196C282.36 162.519 282.744 163.543 283.512 164.268C284.322 164.993 285.453 165.356 286.904 165.356ZM338.463 136.492C340.511 136.492 342.388 136.833 344.095 137.516L342.239 151.724H335.839V145.452C333.961 145.793 332.297 146.817 330.847 148.524C329.396 150.231 328.265 152.385 327.455 154.988V164.716H334.175V171.5H312.863V164.716H317.343V144.236H312.863V137.516H325.087L326.878 145.132C328.116 142.231 329.673 140.076 331.551 138.668C333.428 137.217 335.732 136.492 338.463 136.492ZM371.718 171.5C370.182 176.065 367.899 179.5 364.87 181.804C361.84 184.151 357.787 185.473 352.71 185.772L351.558 178.604C354.8 178.177 357.19 177.452 358.726 176.428C360.304 175.404 361.563 173.761 362.502 171.5H358.982L348.23 137.516H358.918L365.51 165.036L372.678 137.516H383.046L371.718 171.5Z" fill="url(#paint0_linear_2_2)"/>
<defs>
<linearGradient id="paint0_linear_2_2" x1="250.5" y1="111.5" x2="250.5" y2="188.5" gradientUnits="userSpaceOnUse">
<stop stop-color="#88FF88"/>
<stop offset="1" stop-color="#8888FF"/>
</linearGradient>
</defs>
</svg>
